<svg xmlns="http://www.w3.org/2000/svg" viewBox="0 0 48 48"><rect x="3" y="12" width="1" height="1" fill="#f1944f"/><rect x="4" y="11" width="1" height="1" fill="#f1944f"/><rect x="4" y="12" width="1" height="1" fill="#f1944f"/><rect x="5" y="10" width="1" height="1" fill="#f1944f"/><rect x="5" y="11" width="1" height="1" fill="#f5b483"/><rect x="5" y="12" width="1" height="1" fill="#f1944f"/><rect x="6" y="9" width="1" height="1" fill="#f1944f"/><rect x="6" y="10" width="1" height="1" fill="#f5b483"/><rect x="6" y="11" width="1" height="1" fill="#f5b483"/><rect x="6" y="12" width="1" height="1" fill="#f1944f"/><rect x="7" y="8" width="1" height="1" fill="#f1944f"/><rect x="7" y="9" width="1" height="1" fill="#f5b483"/><rect x="7" y="10" width="1" height="1" fill="#f5b483"/><rect x="7" y="11" width="1" height="1" fill="#f5b483"/><rect x="7" y="12" width="1" height="1" fill="#f1944f"/><rect x="8" y="7" width="1" height="1" fill="#f1944f"/><rect x="8" y="8" width="1" height="1" fill="#f5b483"/><rect x="8" y="9" width="1" height="1" fill="#f5b483"/><rect x="8" y="10" width="1" height="1" fill="#f5b483"/><rect x="8" y="11" width="1" height="1" fill="#f5b483"/><rect x="8" y="12" width="1" height="1" fill="#f1944f"/><rect x="9" y="6" width="1" height="1" fill="#f1944f"/><rect x="9" y="7" width="1" height="1" fill="#f5b483"/><rect x="9" y="8" width="1" height="1" fill="#f5b483"/><rect x="9" y="9" width="1" height="1" fill="#f5b483"/><rect x="9" y="10" width="1" height="1" fill="#f5b483"/><rect x="9" y="11" width="1" height="1" fill="#f5b483"/><rect x="9" y="12" width="1" height="1" fill="#f1944f"/><rect x="10" y="5" width="1" height="1" fill="#f1944f"/><rect x="10" y="6" width="1" height="1" fill="#f5b483"/><rect x="10" y="7" width="1" height="1" fill="#f5b483"/><rect x="10" y="8" width="1" height="1" fill="#f5b483"/><rect x="10" y="9" width="1" height="1" fill="#f5b483"/><rect x="10" y="10" width="1" height="1" fill="#f5b483"/><rect x="10" y="11" width="1" height="1" fill="#f5b483"/><rect x="10" y="12" width="1" height="1" fill="#f1944f"/><rect x="11" y="6" width="1" height="1" fill="#f1944f"/><rect x="11" y="7" width="1" height="1" fill="#f5b483"/><rect x="11" y="8" width="1" height="1" fill="#f5b483"/><rect x="11" y="9" width="1" height="1" fill="#f5b483"/><rect x="11" y="10" width="1" height="1" fill="#f5b483"/><rect x="11" y="11" width="1" height="1" fill="#f5b483"/><rect x="11" y="12" width="1" height="1" fill="#f1944f"/><rect x="12" y="7" width="1" height="1" fill="#f1944f"/><rect x="12" y="8" width="1" height="1" fill="#f5b483"/><rect x="12" y="9" width="1" height="1" fill="#f5b483"/><rect x="12" y="10" width="1" height="1" fill="#f5b483"/><rect x="12" y="11" width="1" height="1" fill="#f5b483"/><rect x="12" y="12" width="1" height="1" fill="#f1944f"/><rect x="13" y="8" width="1" height="1" fill="#f1944f"/><rect x="13" y="9" width="1" height="1" fill="#f5b483"/><rect x="13" y="10" width="1" height="1" fill="#f5b483"/><rect x="13" y="11" width="1" height="1" fill="#f5b483"/><rect x="13" y="12" width="1" height="1" fill="#f1944f"/><rect x="14" y="9" width="1" height="1" fill="#f1944f"/><rect x="14" y="10" width="1" height="1" fill="#f5b483"/><rect x="14" y="11" width="1" height="1" fill="#f5b483"/><rect x="14" y="12" width="1" height="1" fill="#f1944f"/><rect x="14" y="47" width="1" height="1" fill="#200d0a"/><rect x="15" y="10" width="1" height="1" fill="#f1944f"/><rect x="15" y="11" width="1" height="1" fill="#f5b483"/><rect x="15" y="12" width="1" height="1" fill="#f1944f"/><rect x="15" y="23" width="1" height="1" fill="#c98275"/><rect x="15" y="27" width="1" height="1" fill="#c98275"/><rect x="15" y="28" width="1" height="1" fill="#c98275"/><rect x="15" y="29" width="1" height="1" fill="#c98275"/><rect x="15" y="30" width="1" height="1" fill="#c98275"/><rect x="15" y="31" width="1" height="1" fill="#c98275"/><rect x="15" y="32" width="1" height="1" fill="#c98275"/><rect x="15" y="33" width="1" height="1" fill="#401b14"/><rect x="15" y="34" width="1" height="1" fill="#401b14"/><rect x="15" y="45" width="1" height="1" fill="#200d0a"/><rect x="15" y="46" width="1" height="1" fill="#200d0a"/><rect x="15" y="47" width="1" height="1" fill="#200d0a"/><rect x="16" y="11" width="1" height="1" fill="#f1944f"/><rect x="16" y="12" width="1" height="1" fill="#f1944f"/><rect x="16" y="17" width="1" height="1" fill="#f5b483"/><rect x="16" y="19" width="1" height="1" fill="#c98275"/><rect x="16" y="20" width="1" height="1" fill="#c98275"/><rect x="16" y="21" width="1" height="1" fill="#11131a"/><rect x="16" y="22" width="1" height="1" fill="#11131a"/><rect x="16" y="23" width="1" height="1" fill="#11131a"/><rect x="16" y="24" width="1" height="1" fill="#11131a"/><rect x="16" y="25" width="1" height="1" fill="#11131a"/><rect x="16" y="26" width="1" height="1" fill="#c98275"/><rect x="16" y="27" width="1" height="1" fill="#c98275"/><rect x="16" y="28" width="1" height="1" fill="#c98275"/><rect x="16" y="29" width="1" height="1" fill="#c98275"/><rect x="16" y="30" width="1" height="1" fill="#c98275"/><rect x="16" y="31" width="1" height="1" fill="#c98275"/><rect x="16" y="32" width="1" height="1" fill="#c98275"/><rect x="16" y="33" width="1" height="1" fill="#401b14"/><rect x="16" y="34" width="1" height="1" fill="#401b14"/><rect x="16" y="42" width="1" height="1" fill="#744741"/><rect x="16" y="43" width="1" height="1" fill="#744741"/><rect x="16" y="44" width="1" height="1" fill="#744741"/><rect x="16" y="45" width="1" height="1" fill="#200d0a"/><rect x="16" y="46" width="1" height="1" fill="#200d0a"/><rect x="16" y="47" width="1" height="1" fill="#200d0a"/><rect x="17" y="12" width="1" height="1" fill="#f1944f"/><rect x="17" y="16" width="1" height="1" fill="#f5b483"/><rect x="17" y="17" width="1" height="1" fill="#f5b483"/><rect x="17" y="18" width="1" height="1" fill="#f5b483"/><rect x="17" y="19" width="1" height="1" fill="#c98275"/><rect x="17" y="20" width="1" height="1" fill="#c98275"/><rect x="17" y="21" width="1" height="1" fill="#11131a"/><rect x="17" y="22" width="1" height="1" fill="#7aa6c8"/><rect x="17" y="23" width="1" height="1" fill="#7aa6c8"/><rect x="17" y="24" width="1" height="1" fill="#7aa6c8"/><rect x="17" y="25" width="1" height="1" fill="#11131a"/><rect x="17" y="26" width="1" height="1" fill="#c98275"/><rect x="17" y="27" width="1" height="1" fill="#c98275"/><rect x="17" y="28" width="1" height="1" fill="#c98275"/><rect x="17" y="29" width="1" height="1" fill="#c98275"/><rect x="17" y="30" width="1" height="1" fill="#c98275"/><rect x="17" y="31" width="1" height="1" fill="#c98275"/><rect x="17" y="32" width="1" height="1" fill="#c98275"/><rect x="17" y="33" width="1" height="1" fill="#401b14"/><rect x="17" y="34" width="1" height="1" fill="#401b14"/><rect x="17" y="37" width="1" height="1" fill="#8b6660"/><rect x="17" y="40" width="1" height="1" fill="#744741"/><rect x="17" y="41" width="1" height="1" fill="#744741"/><rect x="17" y="42" width="1" height="1" fill="#744741"/><rect x="17" y="43" width="1" height="1" fill="#744741"/><rect x="17" y="44" width="1" height="1" fill="#744741"/><rect x="17" y="45" width="1" height="1" fill="#200d0a"/><rect x="17" y="46" width="1" height="1" fill="#200d0a"/><rect x="17" y="47" width="1" height="1" fill="#200d0a"/><rect x="18" y="16" width="1" height="1" fill="#c98275"/><rect x="18" y="17" width="1" height="1" fill="#f5b483"/><rect x="18" y="18" width="1" height="1" fill="#c98275"/><rect x="18" y="19" width="1" height="1" fill="#c98275"/><rect x="18" y="20" width="1" height="1" fill="#c98275"/><rect x="18" y="21" width="1" height="1" fill="#11131a"/><rect x="18" y="22" width="1" height="1" fill="#7aa6c8"/><rect x="18" y="23" width="1" height="1" fill="#7aa6c8"/><rect x="18" y="24" width="1" height="1" fill="#7aa6c8"/><rect x="18" y="25" width="1" height="1" fill="#11131a"/><rect x="18" y="26" width="1" height="1" fill="#c98275"/><rect x="18" y="27" width="1" height="1" fill="#be6959"/><rect x="18" y="28" width="1" height="1" fill="#be6959"/><rect x="18" y="29" width="1" height="1" fill="#be6959"/><rect x="18" y="30" width="1" height="1" fill="#be6959"/><rect x="18" y="31" width="1" height="1" fill="#be6959"/><rect x="18" y="32" width="1" height="1" fill="#401b14"/><rect x="18" y="33" width="1" height="1" fill="#401b14"/><rect x="18" y="34" width="1" height="1" fill="#401b14"/><rect x="18" y="36" width="1" height="1" fill="#8b6660"/><rect x="18" y="37" width="1" height="1" fill="#8b6660"/><rect x="18" y="38" width="1" height="1" fill="#744741"/><rect x="18" y="39" width="1" height="1" fill="#744741"/><rect x="18" y="40" width="1" height="1" fill="#744741"/><rect x="18" y="41" width="1" height="1" fill="#744741"/><rect x="18" y="42" width="1" height="1" fill="#744741"/><rect x="18" y="43" width="1" height="1" fill="#744741"/><rect x="18" y="44" width="1" height="1" fill="#744741"/><rect x="18" y="45" width="1" height="1" fill="#200d0a"/><rect x="18" y="46" width="1" height="1" fill="#200d0a"/><rect x="18" y="47" width="1" height="1" fill="#200d0a"/><rect x="19" y="15" width="1" height="1" fill="#c98275"/><rect x="19" y="16" width="1" height="1" fill="#c98275"/><rect x="19" y="17" width="1" height="1" fill="#c98275"/><rect x="19" y="18" width="1" height="1" fill="#c98275"/><rect x="19" y="19" width="1" height="1" fill="#c98275"/><rect x="19" y="20" width="1" height="1" fill="#c98275"/><rect x="19" y="21" width="1" height="1" fill="#11131a"/><rect x="19" y="22" width="1" height="1" fill="#7aa6c8"/><rect x="19" y="23" width="1" height="1" fill="#7aa6c8"/><rect x="19" y="24" width="1" height="1" fill="#7aa6c8"/><rect x="19" y="25" width="1" height="1" fill="#11131a"/><rect x="19" y="26" width="1" height="1" fill="#c98275"/><rect x="19" y="27" width="1" height="1" fill="#be6959"/><rect x="19" y="28" width="1" height="1" fill="#be6959"/><rect x="19" y="29" width="1" height="1" fill="#be6959"/><rect x="19" y="30" width="1" height="1" fill="#be6959"/><rect x="19" y="31" width="1" height="1" fill="#401b14"/><rect x="19" y="32" width="1" height="1" fill="#be6959"/><rect x="19" y="33" width="1" height="1" fill="#401b14"/><rect x="19" y="34" width="1" height="1" fill="#744741"/><rect x="19" y="35" width="1" height="1" fill="#8b6660"/><rect x="19" y="36" width="1" height="1" fill="#8b6660"/><rect x="19" y="37" width="1" height="1" fill="#8b6660"/><rect x="19" y="38" width="1" height="1" fill="#744741"/><rect x="19" y="39" width="1" height="1" fill="#744741"/><rect x="19" y="40" width="1" height="1" fill="#744741"/><rect x="19" y="41" width="1" height="1" fill="#744741"/><rect x="19" y="42" width="1" height="1" fill="#5a251d"/><rect x="19" y="43" width="1" height="1" fill="#5a251d"/><rect x="19" y="44" width="1" height="1" fill="#5a251d"/><rect x="19" y="45" width="1" height="1" fill="#200d0a"/><rect x="19" y="46" width="1" height="1" fill="#200d0a"/><rect x="19" y="47" width="1" height="1" fill="#200d0a"/><rect x="20" y="15" width="1" height="1" fill="#c98275"/><rect x="20" y="16" width="1" height="1" fill="#c98275"/><rect x="20" y="17" width="1" height="1" fill="#c98275"/><rect x="20" y="18" width="1" height="1" fill="#c98275"/><rect x="20" y="19" width="1" height="1" fill="#c98275"/><rect x="20" y="20" width="1" height="1" fill="#c98275"/><rect x="20" y="21" width="1" height="1" fill="#11131a"/><rect x="20" y="22" width="1" height="1" fill="#7aa6c8"/><rect x="20" y="23" width="1" height="1" fill="#7aa6c8"/><rect x="20" y="24" width="1" height="1" fill="#7aa6c8"/><rect x="20" y="25" width="1" height="1" fill="#11131a"/><rect x="20" y="26" width="1" height="1" fill="#c98275"/><rect x="20" y="27" width="1" height="1" fill="#be6959"/><rect x="20" y="28" width="1" height="1" fill="#be6959"/><rect x="20" y="29" width="1" height="1" fill="#be6959"/><rect x="20" y="30" width="1" height="1" fill="#be6959"/><rect x="20" y="31" width="1" height="1" fill="#401b14"/><rect x="20" y="32" width="1" height="1" fill="#be6959"/><rect x="20" y="33" width="1" height="1" fill="#401b14"/><rect x="20" y="34" width="1" height="1" fill="#8b6660"/><rect x="20" y="35" width="1" height="1" fill="#8b6660"/><rect x="20" y="36" width="1" height="1" fill="#8b6660"/><rect x="20" y="37" width="1" height="1" fill="#8b6660"/><rect x="20" y="38" width="1" height="1" fill="#744741"/><rect x="20" y="39" width="1" height="1" fill="#744741"/><rect x="20" y="40" width="1" height="1" fill="#5a251d"/><rect x="20" y="41" width="1" height="1" fill="#5a251d"/><rect x="20" y="42" width="1" height="1" fill="#5a251d"/><rect x="20" y="43" width="1" height="1" fill="#5a251d"/><rect x="20" y="44" width="1" height="1" fill="#5a251d"/><rect x="20" y="45" width="1" height="1" fill="#301815"/><rect x="20" y="46" width="1" height="1" fill="#200d0a"/><rect x="20" y="47" width="1" height="1" fill="#200d0a"/><rect x="21" y="14" width="1" height="1" fill="#be6959"/><rect x="21" y="15" width="1" height="1" fill="#be6959"/><rect x="21" y="16" width="1" height="1" fill="#be6959"/><rect x="21" y="17" width="1" height="1" fill="#be6959"/><rect x="21" y="18" width="1" height="1" fill="#be6959"/><rect x="21" y="19" width="1" height="1" fill="#be6959"/><rect x="21" y="20" width="1" height="1" fill="#be6959"/><rect x="21" y="21" width="1" height="1" fill="#11131a"/><rect x="21" y="22" width="1" height="1" fill="#7aa6c8"/><rect x="21" y="23" width="1" height="1" fill="#7aa6c8"/><rect x="21" y="24" width="1" height="1" fill="#7aa6c8"/><rect x="21" y="25" width="1" height="1" fill="#11131a"/><rect x="21" y="26" width="1" height="1" fill="#be6959"/><rect x="21" y="27" width="1" height="1" fill="#f5b483"/><rect x="21" y="28" width="1" height="1" fill="#b24d3a"/><rect x="21" y="29" width="1" height="1" fill="#b24d3a"/><rect x="21" y="30" width="1" height="1" fill="#b24d3a"/><rect x="21" y="31" width="1" height="1" fill="#401b14"/><rect x="21" y="32" width="1" height="1" fill="#b24d3a"/><rect x="21" y="33" width="1" height="1" fill="#401b14"/><rect x="21" y="34" width="1" height="1" fill="#8b6660"/><rect x="21" y="35" width="1" height="1" fill="#8b6660"/><rect x="21" y="36" width="1" height="1" fill="#8b6660"/><rect x="21" y="37" width="1" height="1" fill="#8b6660"/><rect x="21" y="38" width="1" height="1" fill="#5a251d"/><rect x="21" y="39" width="1" height="1" fill="#5a251d"/><rect x="21" y="40" width="1" height="1" fill="#301d0f"/><rect x="21" y="41" width="1" height="1" fill="#301d0f"/><rect x="21" y="42" width="1" height="1" fill="#301d0f"/><rect x="21" y="43" width="1" height="1" fill="#301d0f"/><rect x="21" y="44" width="1" height="1" fill="#5a251d"/><rect x="21" y="45" width="1" height="1" fill="#301815"/><rect x="21" y="46" width="1" height="1" fill="#200d0a"/><rect x="21" y="47" width="1" height="1" fill="#200d0a"/><rect x="22" y="14" width="1" height="1" fill="#be6959"/><rect x="22" y="15" width="1" height="1" fill="#be6959"/><rect x="22" y="16" width="1" height="1" fill="#be6959"/><rect x="22" y="17" width="1" height="1" fill="#be6959"/><rect x="22" y="18" width="1" height="1" fill="#be6959"/><rect x="22" y="19" width="1" height="1" fill="#be6959"/><rect x="22" y="20" width="1" height="1" fill="#be6959"/><rect x="22" y="21" width="1" height="1" fill="#11131a"/><rect x="22" y="22" width="1" height="1" fill="#11131a"/><rect x="22" y="23" width="1" height="1" fill="#11131a"/><rect x="22" y="24" width="1" height="1" fill="#11131a"/><rect x="22" y="25" width="1" height="1" fill="#11131a"/><rect x="22" y="26" width="1" height="1" fill="#f5b483"/><rect x="22" y="27" width="1" height="1" fill="#f5b483"/><rect x="22" y="28" width="1" height="1" fill="#f5b483"/><rect x="22" y="29" width="1" height="1" fill="#b24d3a"/><rect x="22" y="30" width="1" height="1" fill="#b24d3a"/><rect x="22" y="31" width="1" height="1" fill="#401b14"/><rect x="22" y="32" width="1" height="1" fill="#b24d3a"/><rect x="22" y="33" width="1" height="1" fill="#401b14"/><rect x="22" y="34" width="1" height="1" fill="#8b6660"/><rect x="22" y="35" width="1" height="1" fill="#8b6660"/><rect x="22" y="36" width="1" height="1" fill="#8b6660"/><rect x="22" y="37" width="1" height="1" fill="#8b6660"/><rect x="22" y="38" width="1" height="1" fill="#5a251d"/><rect x="22" y="39" width="1" height="1" fill="#5a251d"/><rect x="22" y="40" width="1" height="1" fill="#301d0f"/><rect x="22" y="41" width="1" height="1" fill="#301d0f"/><rect x="22" y="42" width="1" height="1" fill="#301d0f"/><rect x="22" y="43" width="1" height="1" fill="#301d0f"/><rect x="22" y="44" width="1" height="1" fill="#5a251d"/><rect x="22" y="45" width="1" height="1" fill="#301815"/><rect x="22" y="46" width="1" height="1" fill="#200d0a"/><rect x="22" y="47" width="1" height="1" fill="#200d0a"/><rect x="23" y="14" width="1" height="1" fill="#f5b483"/><rect x="23" y="15" width="1" height="1" fill="#b24d3a"/><rect x="23" y="16" width="1" height="1" fill="#b24d3a"/><rect x="23" y="17" width="1" height="1" fill="#b24d3a"/><rect x="23" y="18" width="1" height="1" fill="#b24d3a"/><rect x="23" y="19" width="1" height="1" fill="#b24d3a"/><rect x="23" y="20" width="1" height="1" fill="#b24d3a"/><rect x="23" y="21" width="1" height="1" fill="#b24d3a"/><rect x="23" y="22" width="1" height="1" fill="#b24d3a"/><rect x="23" y="23" width="1" height="1" fill="#11131a"/><rect x="23" y="24" width="1" height="1" fill="#b24d3a"/><rect x="23" y="25" width="1" height="1" fill="#b24d3a"/><rect x="23" y="26" width="1" height="1" fill="#b24d3a"/><rect x="23" y="27" width="1" height="1" fill="#f5b483"/><rect x="23" y="28" width="1" height="1" fill="#b24d3a"/><rect x="23" y="29" width="1" height="1" fill="#b24d3a"/><rect x="23" y="30" width="1" height="1" fill="#b24d3a"/><rect x="23" y="31" width="1" height="1" fill="#401b14"/><rect x="23" y="32" width="1" height="1" fill="#b24d3a"/><rect x="23" y="33" width="1" height="1" fill="#401b14"/><rect x="23" y="34" width="1" height="1" fill="#5a251d"/><rect x="23" y="35" width="1" height="1" fill="#5a251d"/><rect x="23" y="36" width="1" height="1" fill="#5a251d"/><rect x="23" y="37" width="1" height="1" fill="#f1944f"/><rect x="23" y="38" width="1" height="1" fill="#f1944f"/><rect x="23" y="39" width="1" height="1" fill="#f1944f"/><rect x="23" y="40" width="1" height="1" fill="#f1944f"/><rect x="23" y="41" width="1" height="1" fill="#301d0f"/><rect x="23" y="42" width="1" height="1" fill="#301d0f"/><rect x="23" y="43" width="1" height="1" fill="#301d0f"/><rect x="23" y="44" width="1" height="1" fill="#5a251d"/><rect x="23" y="45" width="1" height="1" fill="#301815"/><rect x="23" y="46" width="1" height="1" fill="#200d0a"/><rect x="23" y="47" width="1" height="1" fill="#200d0a"/><rect x="24" y="13" width="1" height="1" fill="#f5b483"/><rect x="24" y="14" width="1" height="1" fill="#f5b483"/><rect x="24" y="15" width="1" height="1" fill="#f5b483"/><rect x="24" y="16" width="1" height="1" fill="#b24d3a"/><rect x="24" y="17" width="1" height="1" fill="#b24d3a"/><rect x="24" y="18" width="1" height="1" fill="#b24d3a"/><rect x="24" y="19" width="1" height="1" fill="#b24d3a"/><rect x="24" y="20" width="1" height="1" fill="#b24d3a"/><rect x="24" y="21" width="1" height="1" fill="#b24d3a"/><rect x="24" y="22" width="1" height="1" fill="#b24d3a"/><rect x="24" y="23" width="1" height="1" fill="#11131a"/><rect x="24" y="24" width="1" height="1" fill="#b24d3a"/><rect x="24" y="25" width="1" height="1" fill="#b24d3a"/><rect x="24" y="26" width="1" height="1" fill="#b24d3a"/><rect x="24" y="27" width="1" height="1" fill="#b24d3a"/><rect x="24" y="28" width="1" height="1" fill="#b24d3a"/><rect x="24" y="29" width="1" height="1" fill="#b24d3a"/><rect x="24" y="30" width="1" height="1" fill="#b24d3a"/><rect x="24" y="31" width="1" height="1" fill="#401b14"/><rect x="24" y="32" width="1" height="1" fill="#b24d3a"/><rect x="24" y="33" width="1" height="1" fill="#401b14"/><rect x="24" y="34" width="1" height="1" fill="#5a251d"/><rect x="24" y="35" width="1" height="1" fill="#5a251d"/><rect x="24" y="36" width="1" height="1" fill="#5f2b24"/><rect x="24" y="37" width="1" height="1" fill="#f1944f"/><rect x="24" y="38" width="1" height="1" fill="#f1944f"/><rect x="24" y="39" width="1" height="1" fill="#f1944f"/><rect x="24" y="40" width="1" height="1" fill="#f1944f"/><rect x="24" y="41" width="1" height="1" fill="#301d0f"/><rect x="24" y="42" width="1" height="1" fill="#301d0f"/><rect x="24" y="43" width="1" height="1" fill="#301d0f"/><rect x="24" y="44" width="1" height="1" fill="#5a251d"/><rect x="24" y="45" width="1" height="1" fill="#301815"/><rect x="24" y="46" width="1" height="1" fill="#200d0a"/><rect x="24" y="47" width="1" height="1" fill="#200d0a"/><rect x="25" y="14" width="1" height="1" fill="#f5b483"/><rect x="25" y="15" width="1" height="1" fill="#b24d3a"/><rect x="25" y="16" width="1" height="1" fill="#b24d3a"/><rect x="25" y="17" width="1" height="1" fill="#b24d3a"/><rect x="25" y="18" width="1" height="1" fill="#b24d3a"/><rect x="25" y="19" width="1" height="1" fill="#b24d3a"/><rect x="25" y="20" width="1" height="1" fill="#b24d3a"/><rect x="25" y="21" width="1" height="1" fill="#b24d3a"/><rect x="25" y="22" width="1" height="1" fill="#b24d3a"/><rect x="25" y="23" width="1" height="1" fill="#11131a"/><rect x="25" y="24" width="1" height="1" fill="#b24d3a"/><rect x="25" y="25" width="1" height="1" fill="#b24d3a"/><rect x="25" y="26" width="1" height="1" fill="#b24d3a"/><rect x="25" y="27" width="1" height="1" fill="#b24d3a"/><rect x="25" y="28" width="1" height="1" fill="#b24d3a"/><rect x="25" y="29" width="1" height="1" fill="#b24d3a"/><rect x="25" y="30" width="1" height="1" fill="#b24d3a"/><rect x="25" y="31" width="1" height="1" fill="#401b14"/><rect x="25" y="32" width="1" height="1" fill="#b24d3a"/><rect x="25" y="33" width="1" height="1" fill="#401b14"/><rect x="25" y="34" width="1" height="1" fill="#5a251d"/><rect x="25" y="35" width="1" height="1" fill="#5a251d"/><rect x="25" y="36" width="1" height="1" fill="#5a251d"/><rect x="25" y="37" width="1" height="1" fill="#f1944f"/><rect x="25" y="38" width="1" height="1" fill="#f1944f"/><rect x="25" y="39" width="1" height="1" fill="#f1944f"/><rect x="25" y="40" width="1" height="1" fill="#f1944f"/><rect x="25" y="41" width="1" height="1" fill="#301d0f"/><rect x="25" y="42" width="1" height="1" fill="#301d0f"/><rect x="25" y="43" width="1" height="1" fill="#301d0f"/><rect x="25" y="44" width="1" height="1" fill="#5a251d"/><rect x="25" y="45" width="1" height="1" fill="#301815"/><rect x="25" y="46" width="1" height="1" fill="#200d0a"/><rect x="25" y="47" width="1" height="1" fill="#200d0a"/><rect x="26" y="14" width="1" height="1" fill="#b24d3a"/><rect x="26" y="15" width="1" height="1" fill="#b24d3a"/><rect x="26" y="16" width="1" height="1" fill="#b24d3a"/><rect x="26" y="17" width="1" height="1" fill="#b24d3a"/><rect x="26" y="18" width="1" height="1" fill="#b24d3a"/><rect x="26" y="19" width="1" height="1" fill="#b24d3a"/><rect x="26" y="20" width="1" height="1" fill="#b24d3a"/><rect x="26" y="21" width="1" height="1" fill="#11131a"/><rect x="26" y="22" width="1" height="1" fill="#11131a"/><rect x="26" y="23" width="1" height="1" fill="#11131a"/><rect x="26" y="24" width="1" height="1" fill="#11131a"/><rect x="26" y="25" width="1" height="1" fill="#11131a"/><rect x="26" y="26" width="1" height="1" fill="#b24d3a"/><rect x="26" y="27" width="1" height="1" fill="#b24d3a"/><rect x="26" y="28" width="1" height="1" fill="#b24d3a"/><rect x="26" y="29" width="1" height="1" fill="#b24d3a"/><rect x="26" y="30" width="1" height="1" fill="#b24d3a"/><rect x="26" y="31" width="1" height="1" fill="#401b14"/><rect x="26" y="32" width="1" height="1" fill="#b24d3a"/><rect x="26" y="33" width="1" height="1" fill="#401b14"/><rect x="26" y="34" width="1" height="1" fill="#8b6660"/><rect x="26" y="35" width="1" height="1" fill="#8b6660"/><rect x="26" y="36" width="1" height="1" fill="#8b6660"/><rect x="26" y="37" width="1" height="1" fill="#8b6660"/><rect x="26" y="38" width="1" height="1" fill="#5a251d"/><rect x="26" y="39" width="1" height="1" fill="#5a251d"/><rect x="26" y="40" width="1" height="1" fill="#301d0f"/><rect x="26" y="41" width="1" height="1" fill="#301d0f"/><rect x="26" y="42" width="1" height="1" fill="#301d0f"/><rect x="26" y="43" width="1" height="1" fill="#301d0f"/><rect x="26" y="44" width="1" height="1" fill="#5a251d"/><rect x="26" y="45" width="1" height="1" fill="#301815"/><rect x="26" y="46" width="1" height="1" fill="#200d0a"/><rect x="26" y="47" width="1" height="1" fill="#200d0a"/><rect x="27" y="14" width="1" height="1" fill="#b24d3a"/><rect x="27" y="15" width="1" height="1" fill="#b24d3a"/><rect x="27" y="16" width="1" height="1" fill="#b24d3a"/><rect x="27" y="17" width="1" height="1" fill="#b24d3a"/><rect x="27" y="18" width="1" height="1" fill="#b24d3a"/><rect x="27" y="19" width="1" height="1" fill="#b24d3a"/><rect x="27" y="20" width="1" height="1" fill="#b24d3a"/><rect x="27" y="21" width="1" height="1" fill="#11131a"/><rect x="27" y="22" width="1" height="1" fill="#7aa6c8"/><rect x="27" y="23" width="1" height="1" fill="#7aa6c8"/><rect x="27" y="24" width="1" height="1" fill="#7aa6c8"/><rect x="27" y="25" width="1" height="1" fill="#11131a"/><rect x="27" y="26" width="1" height="1" fill="#f5b483"/><rect x="27" y="27" width="1" height="1" fill="#b24d3a"/><rect x="27" y="28" width="1" height="1" fill="#b24d3a"/><rect x="27" y="29" width="1" height="1" fill="#b24d3a"/><rect x="27" y="30" width="1" height="1" fill="#b24d3a"/><rect x="27" y="31" width="1" height="1" fill="#401b14"/><rect x="27" y="32" width="1" height="1" fill="#b24d3a"/><rect x="27" y="33" width="1" height="1" fill="#401b14"/><rect x="27" y="34" width="1" height="1" fill="#8b6660"/><rect x="27" y="35" width="1" height="1" fill="#8b6660"/><rect x="27" y="36" width="1" height="1" fill="#8b6660"/><rect x="27" y="37" width="1" height="1" fill="#8b6660"/><rect x="27" y="38" width="1" height="1" fill="#5a251d"/><rect x="27" y="39" width="1" height="1" fill="#5a251d"/><rect x="27" y="40" width="1" height="1" fill="#301d0f"/><rect x="27" y="41" width="1" height="1" fill="#301d0f"/><rect x="27" y="42" width="1" height="1" fill="#301d0f"/><rect x="27" y="43" width="1" height="1" fill="#301d0f"/><rect x="27" y="44" width="1" height="1" fill="#5a251d"/><rect x="27" y="45" width="1" height="1" fill="#301815"/><rect x="27" y="46" width="1" height="1" fill="#200d0a"/><rect x="27" y="47" width="1" height="1" fill="#200d0a"/><rect x="28" y="15" width="1" height="1" fill="#230f0b"/><rect x="28" y="16" width="1" height="1" fill="#230f0b"/><rect x="28" y="17" width="1" height="1" fill="#230f0b"/><rect x="28" y="18" width="1" height="1" fill="#230f0b"/><rect x="28" y="19" width="1" height="1" fill="#230f0b"/><rect x="28" y="20" width="1" height="1" fill="#230f0b"/><rect x="28" y="21" width="1" height="1" fill="#11131a"/><rect x="28" y="22" width="1" height="1" fill="#7aa6c8"/><rect x="28" y="23" width="1" height="1" fill="#7aa6c8"/><rect x="28" y="24" width="1" height="1" fill="#7aa6c8"/><rect x="28" y="25" width="1" height="1" fill="#11131a"/><rect x="28" y="26" width="1" height="1" fill="#f5b483"/><rect x="28" y="27" width="1" height="1" fill="#f5b483"/><rect x="28" y="28" width="1" height="1" fill="#b24d3a"/><rect x="28" y="29" width="1" height="1" fill="#b24d3a"/><rect x="28" y="30" width="1" height="1" fill="#b24d3a"/><rect x="28" y="31" width="1" height="1" fill="#401b14"/><rect x="28" y="32" width="1" height="1" fill="#b24d3a"/><rect x="28" y="33" width="1" height="1" fill="#401b14"/><rect x="28" y="34" width="1" height="1" fill="#8b6660"/><rect x="28" y="35" width="1" height="1" fill="#8b6660"/><rect x="28" y="36" width="1" height="1" fill="#8b6660"/><rect x="28" y="37" width="1" height="1" fill="#8b6660"/><rect x="28" y="38" width="1" height="1" fill="#120705"/><rect x="28" y="39" width="1" height="1" fill="#120705"/><rect x="28" y="40" width="1" height="1" fill="#5a251d"/><rect x="28" y="41" width="1" height="1" fill="#5a251d"/><rect x="28" y="42" width="1" height="1" fill="#5a251d"/><rect x="28" y="43" width="1" height="1" fill="#5a251d"/><rect x="28" y="44" width="1" height="1" fill="#5a251d"/><rect x="28" y="45" width="1" height="1" fill="#301815"/><rect x="28" y="46" width="1" height="1" fill="#200d0a"/><rect x="28" y="47" width="1" height="1" fill="#200d0a"/><rect x="29" y="15" width="1" height="1" fill="#230f0b"/><rect x="29" y="16" width="1" height="1" fill="#230f0b"/><rect x="29" y="17" width="1" height="1" fill="#230f0b"/><rect x="29" y="18" width="1" height="1" fill="#f5b483"/><rect x="29" y="19" width="1" height="1" fill="#230f0b"/><rect x="29" y="20" width="1" height="1" fill="#230f0b"/><rect x="29" y="21" width="1" height="1" fill="#11131a"/><rect x="29" y="22" width="1" height="1" fill="#7aa6c8"/><rect x="29" y="23" width="1" height="1" fill="#7aa6c8"/><rect x="29" y="24" width="1" height="1" fill="#7aa6c8"/><rect x="29" y="25" width="1" height="1" fill="#11131a"/><rect x="29" y="26" width="1" height="1" fill="#f5b483"/><rect x="29" y="27" width="1" height="1" fill="#b24d3a"/><rect x="29" y="28" width="1" height="1" fill="#b24d3a"/><rect x="29" y="29" width="1" height="1" fill="#b24d3a"/><rect x="29" y="30" width="1" height="1" fill="#b24d3a"/><rect x="29" y="31" width="1" height="1" fill="#401b14"/><rect x="29" y="32" width="1" height="1" fill="#b24d3a"/><rect x="29" y="33" width="1" height="1" fill="#401b14"/><rect x="29" y="34" width="1" height="1" fill="#120705"/><rect x="29" y="35" width="1" height="1" fill="#8b6660"/><rect x="29" y="36" width="1" height="1" fill="#8b6660"/><rect x="29" y="37" width="1" height="1" fill="#8b6660"/><rect x="29" y="38" width="1" height="1" fill="#120705"/><rect x="29" y="39" width="1" height="1" fill="#120705"/><rect x="29" y="40" width="1" height="1" fill="#120705"/><rect x="29" y="41" width="1" height="1" fill="#120705"/><rect x="29" y="42" width="1" height="1" fill="#5a251d"/><rect x="29" y="43" width="1" height="1" fill="#5a251d"/><rect x="29" y="44" width="1" height="1" fill="#5a251d"/><rect x="29" y="45" width="1" height="1" fill="#200d0a"/><rect x="29" y="46" width="1" height="1" fill="#200d0a"/><rect x="29" y="47" width="1" height="1" fill="#200d0a"/><rect x="30" y="16" width="1" height="1" fill="#230f0b"/><rect x="30" y="17" width="1" height="1" fill="#f5b483"/><rect x="30" y="18" width="1" height="1" fill="#f5b483"/><rect x="30" y="19" width="1" height="1" fill="#f5b483"/><rect x="30" y="20" width="1" height="1" fill="#230f0b"/><rect x="30" y="21" width="1" height="1" fill="#11131a"/><rect x="30" y="22" width="1" height="1" fill="#7aa6c8"/><rect x="30" y="23" width="1" height="1" fill="#7aa6c8"/><rect x="30" y="24" width="1" height="1" fill="#7aa6c8"/><rect x="30" y="25" width="1" height="1" fill="#11131a"/><rect x="30" y="26" width="1" height="1" fill="#230f0b"/><rect x="30" y="27" width="1" height="1" fill="#230f0b"/><rect x="30" y="28" width="1" height="1" fill="#230f0b"/><rect x="30" y="29" width="1" height="1" fill="#230f0b"/><rect x="30" y="30" width="1" height="1" fill="#230f0b"/><rect x="30" y="31" width="1" height="1" fill="#230f0b"/><rect x="30" y="32" width="1" height="1" fill="#401b14"/><rect x="30" y="33" width="1" height="1" fill="#401b14"/><rect x="30" y="34" width="1" height="1" fill="#401b14"/><rect x="30" y="36" width="1" height="1" fill="#8b6660"/><rect x="30" y="37" width="1" height="1" fill="#8b6660"/><rect x="30" y="38" width="1" height="1" fill="#120705"/><rect x="30" y="39" width="1" height="1" fill="#120705"/><rect x="30" y="40" width="1" height="1" fill="#120705"/><rect x="30" y="41" width="1" height="1" fill="#120705"/><rect x="30" y="42" width="1" height="1" fill="#120705"/><rect x="30" y="43" width="1" height="1" fill="#120705"/><rect x="30" y="44" width="1" height="1" fill="#120705"/><rect x="30" y="45" width="1" height="1" fill="#200d0a"/><rect x="30" y="46" width="1" height="1" fill="#200d0a"/><rect x="30" y="47" width="1" height="1" fill="#200d0a"/><rect x="31" y="12" width="1" height="1" fill="#f1944f"/><rect x="31" y="17" width="1" height="1" fill="#230f0b"/><rect x="31" y="18" width="1" height="1" fill="#f5b483"/><rect x="31" y="19" width="1" height="1" fill="#230f0b"/><rect x="31" y="20" width="1" height="1" fill="#230f0b"/><rect x="31" y="21" width="1" height="1" fill="#11131a"/><rect x="31" y="22" width="1" height="1" fill="#7aa6c8"/><rect x="31" y="23" width="1" height="1" fill="#7aa6c8"/><rect x="31" y="24" width="1" height="1" fill="#7aa6c8"/><rect x="31" y="25" width="1" height="1" fill="#11131a"/><rect x="31" y="26" width="1" height="1" fill="#230f0b"/><rect x="31" y="27" width="1" height="1" fill="#230f0b"/><rect x="31" y="28" width="1" height="1" fill="#230f0b"/><rect x="31" y="29" width="1" height="1" fill="#230f0b"/><rect x="31" y="30" width="1" height="1" fill="#230f0b"/><rect x="31" y="31" width="1" height="1" fill="#230f0b"/><rect x="31" y="32" width="1" height="1" fill="#230f0b"/><rect x="31" y="33" width="1" height="1" fill="#401b14"/><rect x="31" y="34" width="1" height="1" fill="#401b14"/><rect x="31" y="37" width="1" height="1" fill="#8b6660"/><rect x="31" y="40" width="1" height="1" fill="#120705"/><rect x="31" y="41" width="1" height="1" fill="#120705"/><rect x="31" y="42" width="1" height="1" fill="#120705"/><rect x="31" y="43" width="1" height="1" fill="#120705"/><rect x="31" y="44" width="1" height="1" fill="#120705"/><rect x="31" y="45" width="1" height="1" fill="#200d0a"/><rect x="31" y="46" width="1" height="1" fill="#200d0a"/><rect x="31" y="47" width="1" height="1" fill="#200d0a"/><rect x="32" y="11" width="1" height="1" fill="#f1944f"/><rect x="32" y="12" width="1" height="1" fill="#f1944f"/><rect x="32" y="19" width="1" height="1" fill="#230f0b"/><rect x="32" y="20" width="1" height="1" fill="#230f0b"/><rect x="32" y="21" width="1" height="1" fill="#11131a"/><rect x="32" y="22" width="1" height="1" fill="#11131a"/><rect x="32" y="23" width="1" height="1" fill="#11131a"/><rect x="32" y="24" width="1" height="1" fill="#11131a"/><rect x="32" y="25" width="1" height="1" fill="#11131a"/><rect x="32" y="26" width="1" height="1" fill="#230f0b"/><rect x="32" y="27" width="1" height="1" fill="#230f0b"/><rect x="32" y="28" width="1" height="1" fill="#230f0b"/><rect x="32" y="29" width="1" height="1" fill="#230f0b"/><rect x="32" y="30" width="1" height="1" fill="#230f0b"/><rect x="32" y="31" width="1" height="1" fill="#230f0b"/><rect x="32" y="32" width="1" height="1" fill="#230f0b"/><rect x="32" y="33" width="1" height="1" fill="#401b14"/><rect x="32" y="34" width="1" height="1" fill="#401b14"/><rect x="32" y="42" width="1" height="1" fill="#120705"/><rect x="32" y="43" width="1" height="1" fill="#120705"/><rect x="32" y="44" width="1" height="1" fill="#120705"/><rect x="32" y="45" width="1" height="1" fill="#200d0a"/><rect x="32" y="46" width="1" height="1" fill="#200d0a"/><rect x="32" y="47" width="1" height="1" fill="#200d0a"/><rect x="33" y="10" width="1" height="1" fill="#f1944f"/><rect x="33" y="11" width="1" height="1" fill="#f5b483"/><rect x="33" y="12" width="1" height="1" fill="#f1944f"/><rect x="33" y="23" width="1" height="1" fill="#230f0b"/><rect x="33" y="27" width="1" height="1" fill="#230f0b"/><rect x="33" y="28" width="1" height="1" fill="#230f0b"/><rect x="33" y="29" width="1" height="1" fill="#230f0b"/><rect x="33" y="30" width="1" height="1" fill="#230f0b"/><rect x="33" y="31" width="1" height="1" fill="#230f0b"/><rect x="33" y="32" width="1" height="1" fill="#230f0b"/><rect x="33" y="33" width="1" height="1" fill="#401b14"/><rect x="33" y="34" width="1" height="1" fill="#401b14"/><rect x="33" y="45" width="1" height="1" fill="#200d0a"/><rect x="33" y="46" width="1" height="1" fill="#200d0a"/><rect x="33" y="47" width="1" height="1" fill="#200d0a"/><rect x="34" y="9" width="1" height="1" fill="#f1944f"/><rect x="34" y="10" width="1" height="1" fill="#f5b483"/><rect x="34" y="11" width="1" height="1" fill="#f5b483"/><rect x="34" y="12" width="1" height="1" fill="#f1944f"/><rect x="34" y="32" width="1" height="1" fill="#230f0b"/><rect x="34" y="47" width="1" height="1" fill="#200d0a"/><rect x="35" y="8" width="1" height="1" fill="#f1944f"/><rect x="35" y="9" width="1" height="1" fill="#f5b483"/><rect x="35" y="10" width="1" height="1" fill="#f5b483"/><rect x="35" y="11" width="1" height="1" fill="#f5b483"/><rect x="35" y="12" width="1" height="1" fill="#f1944f"/><rect x="35" y="33" width="1" height="1" fill="#230f0b"/><rect x="35" y="34" width="1" height="1" fill="#230f0b"/><rect x="36" y="7" width="1" height="1" fill="#f1944f"/><rect x="36" y="8" width="1" height="1" fill="#f5b483"/><rect x="36" y="9" width="1" height="1" fill="#f5b483"/><rect x="36" y="10" width="1" height="1" fill="#f5b483"/><rect x="36" y="11" width="1" height="1" fill="#f5b483"/><rect x="36" y="12" width="1" height="1" fill="#f1944f"/><rect x="36" y="35" width="1" height="1" fill="#230f0b"/><rect x="37" y="6" width="1" height="1" fill="#f1944f"/><rect x="37" y="7" width="1" height="1" fill="#f5b483"/><rect x="37" y="8" width="1" height="1" fill="#f5b483"/><rect x="37" y="9" width="1" height="1" fill="#f5b483"/><rect x="37" y="10" width="1" height="1" fill="#f5b483"/><rect x="37" y="11" width="1" height="1" fill="#f5b483"/><rect x="37" y="12" width="1" height="1" fill="#f1944f"/><rect x="37" y="36" width="1" height="1" fill="#230f0b"/><rect x="38" y="5" width="1" height="1" fill="#f1944f"/><rect x="38" y="6" width="1" height="1" fill="#f5b483"/><rect x="38" y="7" width="1" height="1" fill="#f5b483"/><rect x="38" y="8" width="1" height="1" fill="#f5b483"/><rect x="38" y="9" width="1" height="1" fill="#f5b483"/><rect x="38" y="10" width="1" height="1" fill="#f5b483"/><rect x="38" y="11" width="1" height="1" fill="#f5b483"/><rect x="38" y="12" width="1" height="1" fill="#f1944f"/><rect x="38" y="37" width="1" height="1" fill="#230f0b"/><rect x="38" y="38" width="1" height="1" fill="#230f0b"/><rect x="39" y="6" width="1" height="1" fill="#f1944f"/><rect x="39" y="7" width="1" height="1" fill="#f5b483"/><rect x="39" y="8" width="1" height="1" fill="#f5b483"/><rect x="39" y="9" width="1" height="1" fill="#f5b483"/><rect x="39" y="10" width="1" height="1" fill="#f5b483"/><rect x="39" y="11" width="1" height="1" fill="#f5b483"/><rect x="39" y="12" width="1" height="1" fill="#f1944f"/><rect x="39" y="39" width="1" height="1" fill="#230f0b"/><rect x="40" y="7" width="1" height="1" fill="#f1944f"/><rect x="40" y="8" width="1" height="1" fill="#f5b483"/><rect x="40" y="9" width="1" height="1" fill="#f5b483"/><rect x="40" y="10" width="1" height="1" fill="#f5b483"/><rect x="40" y="11" width="1" height="1" fill="#f5b483"/><rect x="40" y="12" width="1" height="1" fill="#f1944f"/><rect x="40" y="40" width="1" height="1" fill="#230f0b"/><rect x="41" y="8" width="1" height="1" fill="#f1944f"/><rect x="41" y="9" width="1" height="1" fill="#f5b483"/><rect x="41" y="10" width="1" height="1" fill="#f5b483"/><rect x="41" y="11" width="1" height="1" fill="#f5b483"/><rect x="41" y="12" width="1" height="1" fill="#f1944f"/><rect x="41" y="41" width="1" height="1" fill="#230f0b"/><rect x="41" y="42" width="1" height="1" fill="#230f0b"/><rect x="41" y="44" width="1" height="1" fill="#f5b483"/><rect x="42" y="9" width="1" height="1" fill="#f1944f"/><rect x="42" y="10" width="1" height="1" fill="#f5b483"/><rect x="42" y="11" width="1" height="1" fill="#f5b483"/><rect x="42" y="12" width="1" height="1" fill="#f1944f"/><rect x="42" y="43" width="1" height="1" fill="#f5b483"/><rect x="42" y="44" width="1" height="1" fill="#f5b483"/><rect x="42" y="45" width="1" height="1" fill="#f5b483"/><rect x="43" y="10" width="1" height="1" fill="#f1944f"/><rect x="43" y="11" width="1" height="1" fill="#f5b483"/><rect x="43" y="12" width="1" height="1" fill="#f1944f"/><rect x="43" y="42" width="1" height="1" fill="#f5b483"/><rect x="43" y="43" width="1" height="1" fill="#f5b483"/><rect x="43" y="44" width="1" height="1" fill="#f5b483"/><rect x="43" y="45" width="1" height="1" fill="#f5b483"/><rect x="43" y="46" width="1" height="1" fill="#f5b483"/><rect x="44" y="11" width="1" height="1" fill="#f1944f"/><rect x="44" y="12" width="1" height="1" fill="#f1944f"/><rect x="44" y="43" width="1" height="1" fill="#f5b483"/><rect x="44" y="44" width="1" height="1" fill="#f5b483"/><rect x="44" y="45" width="1" height="1" fill="#f5b483"/><rect x="45" y="12" width="1" height="1" fill="#f1944f"/><rect x="45" y="44" width="1" height="1" fill="#f5b483"/></svg>