<svg xmlns="http://www.w3.org/2000/svg" viewBox="0 0 32 32">
    <g class="avatar-root">
        <!-- Outline/Shadow -->
        <path d="M12 4h8v2h4v4h2v12h-2v4h-4v2h-12v-2h-4v-4h-2v-12h2v-4h4v-2z" fill="#11131a" opacity="0.4"/>
        <!-- Main Body Silhouette -->
        <path d="M12 4h8v2h4v4h2v12h-2v4h-4v2h-12v-2h-4v-4h-2v-12h2v-4h4v-2z" fill="#3d7ab3" transform="scale(0.9) translate(1, 1)"/>
        <!-- Primary Accents -->
        <path d="M13 14h6v2h2v4h-2v2h-6v-2h-2v-4h2z M15 7h2v2h-2z" fill="#f0c543"/>
        <!-- Heroic Face -->
        <path d="M15 9h2v2h-2z M14 10h4v2h-4z" fill="#f8efd9"/>
        <!-- Eyes -->
        <path d="M15 10h1v1h-1z M18 10h1v1h-1z" fill="#11131a" class="eye-blink"/>
        <!-- Highlight -->
        <path d="M14 6h2v1h-2z M20 10h1v4h-1z" fill="white" opacity="0.2"/>
    </g>
    </svg>