<svg xmlns="http://www.w3.org/2000/svg" viewBox="0 0 32 32">
    <g class="avatar-root">
        <!-- Outline/Shadow -->
        <path d="M10 5h12v2h4v18h-4v4h-12v-4h-4v-18h4z" fill="#11131a" opacity="0.4"/>
        <!-- Main Body Silhouette -->
        <path d="M10 5h12v2h4v18h-4v4h-12v-4h-4v-18h4z" fill="#5a251d" transform="scale(0.9) translate(1, 1)"/>
        <!-- Primary Accents -->
        <path d="M11 10h10v12h-10z M12 6h8v2h-8z" fill="#e8563e"/>
        <!-- Heroic Face -->
        <path d="M15 9h2v2h-2z M14 10h4v2h-4z" fill="#f8efd9"/>
        <!-- Eyes -->
        <path d="M15 10h1v1h-1z M18 10h1v1h-1z" fill="#11131a" class="eye-blink"/>
        <!-- Highlight -->
        <path d="M14 6h2v1h-2z M20 10h1v4h-1z" fill="white" opacity="0.2"/>
    </g>
    </svg>