<svg xmlns="http://www.w3.org/2000/svg" viewBox="0 0 48 48">
    <g class="avatar-root" transform="translate(8, 8)">
        <!-- Outline/Shadow -->
        <path d="M14 4h6v2h4v18h-4v4h-10v-4h-4v-18h4z" fill="#11131a" opacity="0.4"/>
        <!-- Main Body Silhouette -->
        <path d="M14 4h6v2h4v18h-4v4h-10v-4h-4v-18h4z" fill="#ffffff" transform="scale(0.9) translate(1, 1)"/>
        <!-- Primary Accents -->
        <path d="M14 6h6v16h-6z M15 5h4v1h-4z" fill="#7eb5e3"/>
        <!-- Heroic Face -->
        <path d="M15 9h2v2h-2z M14 10h4v2h-4z" fill="#f8efd9"/>
        <!-- Eyes -->
        <path d="M15 10h1v1h-1z M18 10h1v1h-1z" fill="#11131a" class="eye-blink"/>
        <!-- Highlight -->
        <path d="M14 6h2v1h-2z M20 10h1v4h-1z" fill="white" opacity="0.2"/>
    </g>
    </svg>