<svg xmlns="http://www.w3.org/2000/svg" viewBox="0 0 48 48">
    <g class="avatar-root" transform="translate(8, 8)">
        <!-- Outline/Shadow -->
        <path d="M14 3h6v2h4v2h2v16h-2v4h-4v2h-10v-2h-4v-4h-2v-16h2v-2h4v-2z" fill="#11131a" opacity="0.4"/>
        <!-- Main Body Silhouette -->
        <path d="M14 3h6v2h4v2h2v16h-2v4h-4v2h-10v-2h-4v-4h-2v-16h2v-2h4v-2z" fill="#f0e6d3" transform="scale(0.9) translate(1, 1)"/>
        <!-- Primary Accents -->
        <path d="M14 12h8v10h-8z M16 5h2v2h-2z" fill="#b76ef0"/>
        <!-- Heroic Face -->
        <path d="M15 9h2v2h-2z M14 10h4v2h-4z" fill="#f8efd9"/>
        <!-- Eyes -->
        <path d="M15 10h1v1h-1z M18 10h1v1h-1z" fill="#11131a" class="eye-blink"/>
        <!-- Highlight -->
        <path d="M14 6h2v1h-2z M20 10h1v4h-1z" fill="white" opacity="0.2"/>
    </g>
    </svg>