<svg xmlns="http://www.w3.org/2000/svg" viewBox="0 0 24 24" style="color: #f0e6d3;"><path d="m730.6 861.19c38.812-14.109 49.406-88.219 81.188-109.41 10.594-7.0781 21.188-10.594 35.297-14.109 35.297-7.0781 77.625-7.0781 91.781-28.219 24.703-31.781-10.594-98.812 0-137.63 10.594-38.812 81.188-70.594 81.188-109.41s-67.078-70.594-81.188-109.41 24.703-102.38 0-137.63c-21.234-31.875-95.344-17.766-127.08-42.469-31.781-24.703-42.375-95.297-81.188-109.41-38.812-10.594-88.219 42.375-130.6 42.375-42.375 0-91.781-52.922-130.6-42.375-38.812 14.109-45.891 84.703-81.188 109.41-31.781 24.703-105.89 10.594-130.6 42.375-21.141 31.781 14.156 98.812 3.5625 137.63s-81.188 67.078-81.188 109.41c0 42.375 67.078 74.109 81.188 109.41 14.109 38.812-24.703 102.38 0 137.63 17.625 24.703 56.484 21.188 91.781 28.219 14.109 3.5156 28.219 7.0781 38.812 14.109 31.781 24.703 42.375 98.812 81.188 109.41 35.297 10.594 84.703-38.812 123.52-42.375h7.0312c42.375 7.1719 88.266 56.578 127.08 42.469zm-130.6-183.56c-120 0-215.29-95.297-215.29-215.29 0-119.95 95.297-215.26 215.29-215.26s215.29 95.297 215.29 215.29-95.297 215.26-215.29 215.26z" fill="currentColor" transform="scale(0.02)"/><path d="m875.29 787.08c-7.0781 0-14.109 0-17.625 3.5156-10.594 0-14.109 3.5156-14.109 3.5156-3.5156 3.5156-14.109 21.188-17.625 31.781-14.109 31.781-35.297 70.594-77.625 84.703-10.688 7.0312-21.234 7.0312-31.828 7.0312-24.703 0-49.406-10.594-70.594-21.188l130.6 225.89c14.109 24.703 52.922 24.703 63.516-3.5156l35.297-77.625 84.703 7.0781c28.219 3.5156 49.406-28.219 35.297-52.922z" fill="currentColor" transform="scale(0.02)"/><path d="m455.29 914.11c-42.375-14.109-63.516-52.922-77.625-84.703-3.5156-10.594-14.109-28.219-17.625-31.781 0 0-3.5156-3.5156-14.109-3.5156-7.0781 0-14.109-3.5156-21.188-3.5156l-120 208.22c-14.109 24.703 7.0781 56.484 35.297 52.922l84.703-7.0781 35.297 77.625c10.594 28.219 49.406 28.219 63.516 3.5156l130.6-222.37c-21.188 10.594-42.375 21.188-70.594 21.188-10.641-6.9844-21.188-6.9844-28.266-10.5z" fill="currentColor" transform="scale(0.02)"/><path d="m652.92 395.29-81.188 81.188-24.703-24.703c-10.594-10.594-28.219-10.594-38.812 0s-10.594 28.219 0 38.812l42.375 42.375c3.5156 3.5156 10.594 7.0781 17.625 7.0781 7.0781 0 14.109-3.5156 17.625-7.0781l98.812-98.812c10.594-10.594 10.594-28.219 0-38.812-10.547-10.641-21.141-10.641-31.734-0.046875z" fill="currentColor" transform="scale(0.02)"/></svg>