<svg xmlns="http://www.w3.org/2000/svg" viewBox="0 0 24 24" style="color: #f0e6d3;"><path d="m654.61 306.84h-152.68c-11.297 0-20.531 9.2344-20.531 20.625v12.844c-2.0625-5.8594-6.6094-10.922-13.078-12.938l-145.22-46.922c-5.2969-1.6875-10.781-1.3125-15.703 1.2188-4.7812 2.5312-8.5312 6.7031-10.219 12l-176.29 544.78c-1.6875 5.2969-1.2188 10.781 1.3125 15.703 2.5312 4.9219 6.7031 8.5312 12 10.219l145.22 46.922c2.1562 0.70313 4.2188 1.0781 6.375 1.0781 8.625 0 16.688-5.5312 19.547-14.297l176.06-544.22 0.046875 546.14c0 11.391 9.2344 20.625 20.531 20.625h152.63c11.391 0 20.625-9.2344 20.625-20.625v-572.53c0-11.391-9.2344-20.625-20.625-20.625zm-383.68 536.02-89.625-29.062c-7.4531-2.3906-11.391-10.312-9.1406-17.625l9.8438-30.234c1.0781-3.4688 3.6094-6.375 6.8438-8.1562 3.375-1.6875 7.2188-1.9219 10.781-0.84375l89.625 29.062c7.4531 2.3906 11.391 10.312 9 17.625l-9.7031 30.234c-1.9219 5.8594-7.4531 9.6094-13.312 9.6094-1.4062 0-2.8594-0.09375-4.3125-0.60938zm43.594-364.78-74.297 229.55c-1.6875 5.0625-6.375 8.2969-11.391 8.2969-1.2188 0-2.5312-0.23438-3.7031-0.60938-6.375-2.0625-9.7031-8.7656-7.6875-15.141l74.156-229.55c2.1562-6.2344 8.8594-9.7031 15.141-7.6875 6.3281 2.0625 9.7969 8.7656 7.7812 15.141zm45.094 14.531c2.0625-6.2344 8.8594-9.7031 15.141-7.6875 6.375 2.0625 9.8438 8.7656 7.7812 15.141l-74.25 229.55c-1.6875 5.0625-6.375 8.2969-11.391 8.2969-1.3125 0-2.5312-0.14062-3.7031-0.60938-6.375-2.0625-9.8438-8.7656-7.7812-15.141zm68.062-88.547-9.8438 30.234c-1.0781 3.4688-3.6094 6.375-6.8438 8.1562-2.0625 0.9375-4.2188 1.5469-6.375 1.5469-1.5469 0-3-0.23438-4.3125-0.70312l-89.766-29.062c-7.3125-2.3906-11.391-10.312-9-17.625l9.7031-30.234c2.3906-7.3125 10.312-11.297 17.625-9l89.766 29.062c7.3594 2.3438 11.297 10.266 9.0469 17.625zm103.55 394.31h94.219c7.7812 0 14.062 6.2344 14.062 13.922v31.781c0 7.6875-6.2344 13.922-14.062 13.922h-94.219c-7.7812 0-14.062-6.2344-14.062-13.922v-31.781c0.046875-7.6875 6.2812-13.922 14.062-13.922zm-0.60938-59.531v-241.31c0-6.6094 5.2969-12 12-12 6.6094 0 12 5.3906 12 12v241.31c0 6.6094-5.3906 12-12 12-6.7031 0-12-5.3906-12-12zm71.438 0v-241.31c0-6.6094 5.3906-12 12-12 6.7031 0 12 5.3906 12 12v241.31c0 6.6094-5.2969 12-12 12-6.6094 0-12-5.3906-12-12zm37.406-314.76c0 7.6875-6.2344 14.062-14.062 14.062h-94.219c-7.7812 0-14.062-6.375-14.062-14.062l0.09375-31.688c0-7.7812 6.2344-14.062 14.062-14.062h94.219c7.7812 0 14.062 6.2344 14.062 14.062z" fill="currentColor" transform="scale(0.02)"/><path d="m857.06 306.84h-152.68c-11.391 0-20.531 9.2344-20.531 20.625v572.53c0 11.391 9.1406 20.625 20.531 20.625h152.63c11.391 0 20.531-9.2344 20.531-20.625v-572.53c0-11.391-9.0938-20.625-20.484-20.625zm-123.52 491.53h94.312c7.6875 0 14.062 6.2344 14.062 13.922v31.781c0 7.6875-6.375 13.922-14.062 13.922h-94.312c-7.6875 0-14.062-6.2344-14.062-13.922v-31.781c0.046875-7.6875 6.375-13.922 14.062-13.922zm-0.60938-59.531v-241.31c0-6.6094 5.3906-12 12-12s12 5.3906 12 12v241.31c0 6.6094-5.3906 12-12 12-6.5625 0-12-5.3906-12-12zm71.531 0v-241.31c0-6.6094 5.3906-12 12-12s12 5.3906 12 12v241.31c0 6.6094-5.3906 12-12 12s-12-5.3906-12-12zm37.453-314.76c0 7.6875-6.375 14.062-14.062 14.062h-94.312c-7.6875 0-14.062-6.375-14.062-14.062l0.046875-31.688c0-7.7812 6.375-14.062 14.062-14.062h94.312c7.6875 0 14.062 6.2344 14.062 14.062z" fill="currentColor" transform="scale(0.02)"/><path d="m1059.5 306.84h-152.63c-11.391 0-20.625 9.2344-20.625 20.625v572.53c0 11.391 9.2344 20.625 20.625 20.625h152.63c11.297 0 20.531-9.2344 20.531-20.625v-572.53c0-11.391-9.2344-20.625-20.531-20.625zm-123.47 491.53h94.312c7.6875 0 13.922 6.2344 13.922 13.922v31.781c0 7.6875-6.2344 13.922-13.922 13.922h-94.312c-7.7812 0-14.062-6.2344-14.062-13.922v-31.781c0-7.6875 6.2812-13.922 14.062-13.922zm-0.60938-59.531v-241.31c0-6.6094 5.3906-12 12-12s12 5.3906 12 12v241.31c0 6.6094-5.3906 12-12 12s-12-5.3906-12-12zm71.391 0v-241.31c0-6.6094 5.3906-12 12-12 6.7031 0 12 5.3906 12 12v241.31c0 6.6094-5.2969 12-12 12-6.5625 0-12-5.3906-12-12zm37.453-314.76c0 7.6875-6.2344 14.062-13.922 14.062h-94.312c-7.7812 0-14.062-6.375-14.062-14.062v-31.688c0-7.7812 6.2344-14.062 14.062-14.062h94.312c7.6875 0 13.922 6.2344 13.922 14.062z" fill="currentColor" transform="scale(0.02)"/></svg>