<svg xmlns="http://www.w3.org/2000/svg" viewBox="0 0 24 24" style="color: #f0c543;"><path d="m550.31 975v-426.47h99.375v426.47zm-278.34-707.39v-81.75c35.625 10.219 70.312 29.156 102.84 52.734l1.5469 1.0781c26.625 19.453 51.844 41.953 74.953 65.156 83.531 83.906 140.21 177.94 140.21 177.94 0.84375 1.3594 1.9688 2.5312 3.2812 3.3281 1.0781 0.65625 2.3438 1.125 3.5625 1.3594 1.0781 0.1875 2.2031 0.1875 3.2812 0 1.2188-0.23438 2.4844-0.65625 3.5625-1.3594 1.3125-0.84375 2.4375-1.9688 3.2812-3.3281 0 0 56.672-94.031 140.21-177.94 23.156-23.203 48.328-45.703 74.953-65.156l1.5-1.0781c32.531-23.578 67.219-42.562 102.84-52.734v81.75c-195.71 98.438-261.74 229.82-275.02 260.68l-105.98-0.046874c-13.312-30.844-79.359-162.19-275.02-260.63zm-170.72 79.547 1.7812 0.14062c204.52 18.609 398.9 172.55 427.4 195.89v423.61c-187.82-118.31-343.78-147.71-379.08-153.14l-76.359-468c8.7656 0.23438 17.531 0.75 26.25 1.5zm410.16 155.9c-68.906-51-229.64-156.71-398.44-175.13v-101.02c250.92 74.578 358.87 209.81 398.44 276.14zm575.68-175.13c-168.79 18.422-329.48 124.13-398.48 175.13 39.609-66.328 147.56-201.56 398.48-276.14zm-417.47 638.86v-423.61c28.5-23.344 222.89-177.28 427.4-195.89l1.7344-0.14062c8.7656-0.75 17.531-1.2656 26.297-1.5l-76.359 468c-35.344 5.4375-191.26 34.828-379.08 153.14zm-92.391-541.78c-25.219-35.766-64.266-86.812-111.89-134.63-22.875-22.969-47.719-45.188-73.969-64.641v-75.703c112.36 71.906 164.44 201.71 185.9 274.97zm231.56-199.26c-26.25 19.453-51.094 41.672-73.969 64.641-47.625 47.812-86.672 98.859-111.89 134.63 21.469-73.266 73.547-203.11 185.9-274.97z" fill="currentColor" fill-rule="evenodd" transform="scale(0.02)"/></svg>