<svg xmlns="http://www.w3.org/2000/svg" viewBox="0 0 24 24" style="color: #f0c543;"><path d="m438 894h324v-588h-324zm144-438c0-9.9375 8.0625-18 18-18s18 8.0625 18 18v288c0 9.9375-8.0625 18-18 18s-18-8.0625-18-18zm180-312.14v126.14h-324v-126.14c0-23.062 18.844-41.859 41.859-41.859h240.24c23.062 0 41.906 18.844 41.906 41.859zm-324 786.14h324v126.14c0 23.062-18.844 41.859-41.859 41.859h-240.28c-23.062 0-41.859-18.844-41.859-41.859zm-324-36h276v-468h-276zm120-318c0-9.9375 8.0625-18 18-18s18 8.0625 18 18v168c0 9.9375-8.0625 18-18 18s-18-8.0625-18-18zm156-312.14v126.14h-276v-126.14c0-23.062 18.844-41.859 41.859-41.859h192.24c23.062 0 41.906 18.844 41.906 41.859zm-276 666.14h276v126.14c0 23.062-18.844 41.859-41.859 41.859h-192.28c-23.062 0-41.859-18.844-41.859-41.859zm696-36h276v-420h-276zm120-270c0-9.9375 8.0625-18 18-18s18 8.0625 18 18v120c0 9.9375-8.0625 18-18 18s-18-8.0625-18-18zm156-312.14v126.14h-276v-126.14c0-23.062 18.844-41.859 41.859-41.859h192.24c23.062 0 41.906 18.844 41.906 41.859zm-276 618.14h276v126.14c0 23.062-18.844 41.859-41.859 41.859h-192.28c-23.062 0-41.859-18.844-41.859-41.859z" fill="currentColor" transform="scale(0.02)"/></svg>