<svg xmlns="http://www.w3.org/2000/svg" viewBox="0 0 24 24" style="color: #f0e6d3;"><path d="m903.47 830.68v-624.61h-69.844v132c0 3.7969-2.1094 7.2188-5.4375 9s-7.3594 1.5938-10.5-0.51562l-55.453-37.359-55.453 37.359c-3.0938 2.1094-7.125 2.2969-10.453 0.51562-3.375-1.7812-5.4375-5.2031-5.4375-9v-132h-315.37v624.61zm-548.39-624.61h-58.5v650.53c0.89062-0.9375 1.7812-1.9219 2.7188-2.8125 14.812-14.812 34.828-23.109 55.734-23.109h0.046875zm548.39 693.28v-48.281h-548.44c-15.469 0-30.375 6.1875-41.297 17.156-10.969 10.922-17.156 25.828-17.156 41.297 0 15.516 6.1875 30.375 17.156 41.344 10.922 10.969 25.828 17.109 41.297 17.109h548.44v-48.234h-538.18c-5.625 0-10.219-4.5938-10.219-10.219s4.5938-10.172 10.219-10.172zm-90.281-688.36h-101.91v107.91l45.234-30.469c3.4688-2.2969 8.0156-2.2969 11.391 0l45.281 30.469z" fill="currentColor" fill-rule="evenodd" transform="scale(0.02)"/></svg>