<svg xmlns="http://www.w3.org/2000/svg" viewBox="0 0 24 24" style="color: #f0c543;"><path d="m933.84 594.47s-30.703 87.141-60.141 104.62c0 0 28.312-162-19.078-223.92 0 0-11.156 108.94-83.766 176.63 0 0 90-312.71-246-531.84 0 0 55.781 143.76-65.625 361.69l-4.2188 0.375s-50.297-24.469-39.469-152.53c0 0-109.45 109.55-60.703 358.55 0 0-57.375-11.156-85.922-117.23 0 0-37.781 189.24-11.766 263.39 26.062 74.156 54.141 137.53 147.37 193.22 93.375 55.547 100.78 42.234 135.71 48.844 16.453 3.1406 37.547 4.0781 58.219 3.4688-12-0.46875-23.391-1.9219-30.703-3.8438-14.531-3.8438-34.547-6.8438-69.141-26.062-34.547-19.219-73.312-63.703-86.531-111.47s-7.7812-99.234 2.2969-128.39c0 0 17.062 48.469 33.469 58.219 0 0-15.703-90.141 10.688-124.55 0 0 6.2344 60.609 46.547 98.156 0 0-50.062-173.86 136.78-295.69 0 0-31.078 79.922 36.469 201.14l2.2969 0.23438s27.938-13.547 21.938-84.703c0 0 60.844 60.938 33.703 199.31 0 0 31.922-6.2344 47.766-65.156 0 0 21 105.23 6.4688 146.53s-30.141 76.453-81.938 107.39c-13.922 8.2969-24.375 13.781-32.625 17.531 24.469-6 57.234-15.141 106.08-42.375 62.156-34.547 131.86-114.7 155.63-200.53 23.859-85.781 13.922-178.45-3.9375-230.86z" fill="currentColor" transform="scale(0.02)"/></svg>