<svg xmlns="http://www.w3.org/2000/svg" viewBox="0 0 24 24" style="color: #f0c543;"><path d="m583.03 13.312c26.672 19.406 52.125 35.156 75.141 54.562 77.578 64.266 127.26 145.45 139.4 247.26 7.2656 66.656-1.2188 130.92-23.016 193.92-18.188 50.906 2.4375 103.03 49.688 123.66 33.938 14.531 66.656 9.7031 95.766-12.141 29.109-23.016 41.203-54.562 35.156-92.109 0-2.4375-1.2188-6.0469-1.2188-9.7031 2.4375 1.2188 3.6562 1.2188 3.6562 2.4375 52.125 84.844 86.062 175.74 86.062 277.6 1.2188 134.53-60.609 237.56-166.08 317.58-30.281 23.016-63.047 39.984-99.375 53.344 52.125-48.469 76.359-105.47 65.438-175.74-8.4844-55.734-38.766-99.375-78.797-135.74-3.6562 16.969-4.8281 35.156-12.141 50.906-23.016 47.25-84.844 56.953-123.66 21.797-58.172-53.344-76.359-121.22-70.312-197.58 6.0938-71.531 71.531-212.16 71.531-216.98-12.141 3.6562-360 255.74-198.79 584.26 14.531 30.281 36.375 56.953 61.828 80.016-9.7031-3.6562-18.188-6.0469-27.891-9.7031-92.109-35.156-168.47-90.891-219.37-176.95-42.422-71.531-52.125-149.11-43.641-230.29 15.75-139.4 78.797-254.53 175.74-353.95 65.438-66.656 122.44-139.4 166.08-221.81 19.406-37.594 35.156-76.359 38.766-118.78 1.2656-17.016 0.046875-33.984 0.046875-55.828z" fill="currentColor" transform="scale(0.02)"/></svg>