<svg xmlns="http://www.w3.org/2000/svg" viewBox="0 0 24 24" style="color: #f0e6d3;"><path d="m1129.2 514.8c-74.398-180-225.6-286.8-338.4-240h-1.1992c-60 25.199-123.6 39.602-188.4 39.602h-2.3984c-64.801 0-129.6-14.398-188.4-39.602h-1.1992c-112.8-46.801-264 61.199-338.4 240-74.398 178.8-44.398 363.6 68.398 410.4c66 27.602 144 2.3984 213.6-58.801 67.199-58.801 152.4-93.602 241.2-93.602h12c88.801 0 174 33.602 241.2 93.602 69.602 61.199 147.6 86.398 213.6 58.801 112.79-46.801 142.79-230.4 68.391-410.4zm-694.8 108h-49.199v49.199c0 32.398-26.398 58.801-58.801 58.801-32.398 0-58.801-26.398-58.801-58.801v-49.199h-49.199c-32.398 0-58.801-26.398-58.801-58.801 0-32.398 26.398-58.801 58.801-58.801h49.199l0.003906-49.199c0-32.398 26.398-58.801 58.801-58.801 32.398 0 58.801 26.398 58.801 58.801v49.199h49.199c32.398 0 58.801 26.398 58.801 58.801-0.003906 32.398-26.402 58.801-58.805 58.801zm439.2-225.6c32.398 0 58.801 26.398 58.801 58.801 0 32.398-26.398 58.801-58.801 58.801-32.398 0-58.801-26.398-58.801-58.801 0-32.398 26.398-58.801 58.801-58.801zm-108 224.4c-32.398 0-58.801-26.398-58.801-58.801 0-32.398 26.398-58.801 58.801-58.801 32.398 0 58.801 26.398 58.801 58.801-1.2031 33.598-26.402 58.801-58.801 58.801zm108 108c-32.398 0-58.801-26.398-58.801-58.801 0-32.398 26.398-58.801 58.801-58.801 32.398 0 58.801 26.398 58.801 58.801-1.2031 33.598-27.602 58.801-58.801 58.801zm106.8-108c-32.398 0-58.801-26.398-58.801-58.801 0-32.398 26.398-58.801 58.801-58.801 32.398 0 58.801 26.398 58.801 58.801 0 33.598-26.398 58.801-58.801 58.801z" fill="currentColor" transform="scale(0.02)"/></svg>