<svg xmlns="http://www.w3.org/2000/svg" viewBox="0 0 16 16"><rect x="1" y="4" width="1" height="1" fill="#3a3a4e"/><rect x="1" y="5" width="1" height="1" fill="#4a4a60"/><rect x="1" y="6" width="1" height="1" fill="#4a4a60"/><rect x="1" y="7" width="1" height="1" fill="#4a4a60"/><rect x="1" y="8" width="1" height="1" fill="#4a4a60"/><rect x="1" y="9" width="1" height="1" fill="#3a3a4e"/><rect x="2" y="2" width="1" height="1" fill="#3a3a4e"/><rect x="2" y="3" width="1" height="1" fill="#4a4a60"/><rect x="2" y="4" width="1" height="1" fill="#4a4a60"/><rect x="2" y="5" width="1" height="1" fill="#ababbe"/><rect x="2" y="6" width="1" height="1" fill="#ababbe"/><rect x="2" y="7" width="1" height="1" fill="#8b8b9e"/><rect x="2" y="8" width="1" height="1" fill="#8b8b9e"/><rect x="2" y="9" width="1" height="1" fill="#4a4a60"/><rect x="2" y="10" width="1" height="1" fill="#3a3a4e"/><rect x="3" y="2" width="1" height="1" fill="#4a4a60"/><rect x="3" y="3" width="1" height="1" fill="#ababbe"/><rect x="3" y="4" width="1" height="1" fill="#ababbe"/><rect x="3" y="5" width="1" height="1" fill="#ababbe"/><rect x="3" y="6" width="1" height="1" fill="#8b8b9e"/><rect x="3" y="7" width="1" height="1" fill="#8b8b9e"/><rect x="3" y="8" width="1" height="1" fill="#8b8b9e"/><rect x="3" y="9" width="1" height="1" fill="#6a6a80"/><rect x="3" y="10" width="1" height="1" fill="#4a4a60"/><rect x="4" y="2" width="1" height="1" fill="#4a4a60"/><rect x="4" y="3" width="1" height="1" fill="#ababbe"/><rect x="4" y="4" width="1" height="1" fill="#8b8b9e"/><rect x="4" y="5" width="1" height="1" fill="#fffaf0"/><rect x="4" y="6" width="1" height="1" fill="#8b8b9e"/><rect x="4" y="7" width="1" height="1" fill="#8b8b9e"/><rect x="4" y="8" width="1" height="1" fill="#6a6a80"/><rect x="4" y="9" width="1" height="1" fill="#6a6a80"/><rect x="4" y="10" width="1" height="1" fill="#4a4a60"/><rect x="5" y="2" width="1" height="1" fill="#4a4a60"/><rect x="5" y="3" width="1" height="1" fill="#8b8b9e"/><rect x="5" y="4" width="1" height="1" fill="#ababbe"/><rect x="5" y="5" width="1" height="1" fill="#f0e6d3"/><rect x="5" y="6" width="1" height="1" fill="#d4c4a8"/><rect x="5" y="7" width="1" height="1" fill="#8b8b9e"/><rect x="5" y="8" width="1" height="1" fill="#6a6a80"/><rect x="5" y="9" width="1" height="1" fill="#4a4a60"/><rect x="6" y="2" width="1" height="1" fill="#4a4a60"/><rect x="6" y="3" width="1" height="1" fill="#8b8b9e"/><rect x="6" y="4" width="1" height="1" fill="#8b8b9e"/><rect x="6" y="5" width="1" height="1" fill="#d4c4a8"/><rect x="6" y="6" width="1" height="1" fill="#8b8b9e"/><rect x="6" y="7" width="1" height="1" fill="#8b8b9e"/><rect x="6" y="8" width="1" height="1" fill="#6a6a80"/><rect x="6" y="9" width="1" height="1" fill="#4a4a60"/><rect x="7" y="2" width="1" height="1" fill="#4a4a60"/><rect x="7" y="3" width="1" height="1" fill="#8b8b9e"/><rect x="7" y="4" width="1" height="1" fill="#8b8b9e"/><rect x="7" y="5" width="1" height="1" fill="#8b8b9e"/><rect x="7" y="6" width="1" height="1" fill="#8b8b9e"/><rect x="7" y="7" width="1" height="1" fill="#6a6a80"/><rect x="7" y="8" width="1" height="1" fill="#6a6a80"/><rect x="7" y="9" width="1" height="1" fill="#4a4a60"/><rect x="8" y="2" width="1" height="1" fill="#4a4a60"/><rect x="8" y="3" width="1" height="1" fill="#8b8b9e"/><rect x="8" y="4" width="1" height="1" fill="#8b8b9e"/><rect x="8" y="5" width="1" height="1" fill="#4a4a60"/><rect x="8" y="6" width="1" height="1" fill="#8b8b9e"/><rect x="8" y="7" width="1" height="1" fill="#6a6a80"/><rect x="8" y="8" width="1" height="1" fill="#6a6a80"/><rect x="8" y="9" width="1" height="1" fill="#4a4a60"/><rect x="9" y="2" width="1" height="1" fill="#4a4a60"/><rect x="9" y="3" width="1" height="1" fill="#8b8b9e"/><rect x="9" y="4" width="1" height="1" fill="#8b8b9e"/><rect x="9" y="5" width="1" height="1" fill="#4a4a60"/><rect x="9" y="6" width="1" height="1" fill="#8b8b9e"/><rect x="9" y="7" width="1" height="1" fill="#6a6a80"/><rect x="9" y="8" width="1" height="1" fill="#6a6a80"/><rect x="9" y="9" width="1" height="1" fill="#4a4a60"/><rect x="10" y="2" width="1" height="1" fill="#4a4a60"/><rect x="10" y="3" width="1" height="1" fill="#6a6a80"/><rect x="10" y="4" width="1" height="1" fill="#8b8b9e"/><rect x="10" y="5" width="1" height="1" fill="#8b8b9e"/><rect x="10" y="6" width="1" height="1" fill="#e8563e"/><rect x="10" y="7" width="1" height="1" fill="#6a6a80"/><rect x="10" y="8" width="1" height="1" fill="#6a6a80"/><rect x="10" y="9" width="1" height="1" fill="#4a4a60"/><rect x="10" y="10" width="1" height="1" fill="#4a4a60"/><rect x="11" y="2" width="1" height="1" fill="#4a4a60"/><rect x="11" y="3" width="1" height="1" fill="#6a6a80"/><rect x="11" y="4" width="1" height="1" fill="#6a6a80"/><rect x="11" y="5" width="1" height="1" fill="#5cdb5c"/><rect x="11" y="6" width="1" height="1" fill="#6a6a80"/><rect x="11" y="7" width="1" height="1" fill="#6a6a80"/><rect x="11" y="8" width="1" height="1" fill="#6a6a80"/><rect x="11" y="9" width="1" height="1" fill="#4a4a60"/><rect x="11" y="10" width="1" height="1" fill="#4a4a60"/><rect x="12" y="2" width="1" height="1" fill="#4a4a60"/><rect x="12" y="3" width="1" height="1" fill="#6a6a80"/><rect x="12" y="4" width="1" height="1" fill="#6a6a80"/><rect x="12" y="5" width="1" height="1" fill="#6a6a80"/><rect x="12" y="6" width="1" height="1" fill="#5cdb5c"/><rect x="12" y="7" width="1" height="1" fill="#6a6a80"/><rect x="12" y="8" width="1" height="1" fill="#4a4a60"/><rect x="12" y="9" width="1" height="1" fill="#4a4a60"/><rect x="12" y="10" width="1" height="1" fill="#3a3a4e"/><rect x="13" y="2" width="1" height="1" fill="#3a3a4e"/><rect x="13" y="3" width="1" height="1" fill="#4a4a60"/><rect x="13" y="4" width="1" height="1" fill="#4a4a60"/><rect x="13" y="5" width="1" height="1" fill="#4a4a60"/><rect x="13" y="6" width="1" height="1" fill="#4a4a60"/><rect x="13" y="7" width="1" height="1" fill="#4a4a60"/><rect x="13" y="8" width="1" height="1" fill="#4a4a60"/><rect x="13" y="9" width="1" height="1" fill="#3a3a4e"/><rect x="14" y="4" width="1" height="1" fill="#3a3a4e"/><rect x="14" y="5" width="1" height="1" fill="#3a3a4e"/><rect x="14" y="6" width="1" height="1" fill="#3a3a4e"/><rect x="14" y="7" width="1" height="1" fill="#3a3a4e"/></svg>