<svg xmlns="http://www.w3.org/2000/svg" viewBox="0 0 24 24" style="color: #f0e6d3;"><path d="m225 600h-73.453c-30.797 0-58.5-18.844-69.797-47.531-11.25-28.688-3.8906-61.359 18.703-82.359l422.86-393.71c43.219-40.219 110.11-40.219 153.32 0l422.9 393.71c22.547 21 29.953 53.672 18.703 82.359-11.297 28.688-39 47.531-69.797 47.531h-73.453v412.5c0 62.156-50.391 112.5-112.5 112.5h-525c-62.156 0-112.5-50.344-112.5-112.5zm579.98-130.18c-0.14062-0.046875-0.23438-0.046875-0.375-0.046875-68.391-15.562-136.74-13.875-205.13 5.25-67.453-17.391-135-18.891-202.6-5.2031-0.14062 0.046875-0.32812 0.09375-0.46875 0.14062-34.547 7.4531-59.25 38.016-59.203 73.359 0 55.641 0 177.14 0.42187 244.82 0 22.172 10.031 43.406 27.422 57.562 17.344 14.156 40.125 19.781 62.109 15.328 53.531-10.266 107.53-6.5625 161.53 10.5 7.5 2.3438 15.562 2.2969 23.062-0.14062 53.531-17.719 106.97-21.984 160.4-10.828 21.938 4.7344 45-0.79687 62.625-15 17.672-14.25 27.938-35.672 27.938-58.359 0-68.016 0-189.61-0.1875-244.78 0-34.5-23.859-64.594-57.562-72.609zm-242.48 73.594v244.18c-49.922-9.6094-99.891-9.75-149.9-0.14062-0.375-67.594-0.375-188.68-0.375-244.18 50.156-10.125 100.17-10.172 150.28 0.14062zm75 243.61v-244.26c49.969-11.297 100.03-11.297 150.05-0.046875 0.1875 55.125 0.1875 176.53 0.1875 244.5l-0.1875-0.046875c-49.969-10.453-100.03-10.266-150.05-0.14062z" fill="currentColor" fill-rule="evenodd" transform="scale(0.02)"/></svg>