<svg xmlns="http://www.w3.org/2000/svg" viewBox="0 0 16 16"><rect x="0" y="4" width="1" height="1" fill="#ffe9a0"/><rect x="0" y="12" width="1" height="1" fill="#8a6b10"/><rect x="1" y="3" width="1" height="1" fill="#ffffff"/><rect x="1" y="8" width="1" height="1" fill="#c49b22"/><rect x="2" y="2" width="1" height="1" fill="#fff4cf"/><rect x="2" y="14" width="1" height="1" fill="#5e4d29"/><rect x="3" y="1" width="1" height="1" fill="#f0c543"/><rect x="3" y="6" width="1" height="1" fill="#5d4a1c"/><rect x="3" y="7" width="1" height="1" fill="#5e4d29"/><rect x="4" y="4" width="1" height="1" fill="#5d4a1c"/><rect x="4" y="5" width="1" height="1" fill="#5e4d29"/><rect x="4" y="6" width="1" height="1" fill="#8a6b10"/><rect x="4" y="7" width="1" height="1" fill="#8a6b10"/><rect x="4" y="8" width="1" height="1" fill="#5e4d29"/><rect x="4" y="9" width="1" height="1" fill="#5d4a1c"/><rect x="5" y="3" width="1" height="1" fill="#5e4d29"/><rect x="5" y="4" width="1" height="1" fill="#8a6b10"/><rect x="5" y="5" width="1" height="1" fill="#8a6b10"/><rect x="5" y="6" width="1" height="1" fill="#ffefbc"/><rect x="5" y="7" width="1" height="1" fill="#ffe9a0"/><rect x="5" y="8" width="1" height="1" fill="#8a6b10"/><rect x="5" y="9" width="1" height="1" fill="#8a6b10"/><rect x="5" y="10" width="1" height="1" fill="#5e4d29"/><rect x="6" y="2" width="1" height="1" fill="#5e4d29"/><rect x="6" y="3" width="1" height="1" fill="#8a6b10"/><rect x="6" y="4" width="1" height="1" fill="#ffe9a0"/><rect x="6" y="5" width="1" height="1" fill="#ffefbc"/><rect x="6" y="6" width="1" height="1" fill="#ffe9a0"/><rect x="6" y="7" width="1" height="1" fill="#f0c543"/><rect x="6" y="8" width="1" height="1" fill="#ffe9a0"/><rect x="6" y="9" width="1" height="1" fill="#f0c543"/><rect x="6" y="10" width="1" height="1" fill="#8a6b10"/><rect x="6" y="11" width="1" height="1" fill="#5e4d29"/><rect x="6" y="12" width="1" height="1" fill="#5d4a1c"/><rect x="7" y="1" width="1" height="1" fill="#5e4d29"/><rect x="7" y="2" width="1" height="1" fill="#8a6b10"/><rect x="7" y="3" width="1" height="1" fill="#ffefbc"/><rect x="7" y="4" width="1" height="1" fill="#ffe9a0"/><rect x="7" y="5" width="1" height="1" fill="#ffe9a0"/><rect x="7" y="6" width="1" height="1" fill="#fade84"/><rect x="7" y="7" width="1" height="1" fill="#f0c543"/><rect x="7" y="8" width="1" height="1" fill="#fade84"/><rect x="7" y="9" width="1" height="1" fill="#a78319"/><rect x="7" y="10" width="1" height="1" fill="#f0c543"/><rect x="7" y="11" width="1" height="1" fill="#8a6b10"/><rect x="7" y="12" width="1" height="1" fill="#5e4d29"/><rect x="8" y="0" width="1" height="1" fill="#5e4d29"/><rect x="8" y="1" width="1" height="1" fill="#8a6b10"/><rect x="8" y="2" width="1" height="1" fill="#ffefbc"/><rect x="8" y="3" width="1" height="1" fill="#ffe9a0"/><rect x="8" y="4" width="1" height="1" fill="#f0c543"/><rect x="8" y="5" width="1" height="1" fill="#f0c543"/><rect x="8" y="6" width="1" height="1" fill="#a78319"/><rect x="8" y="7" width="1" height="1" fill="#deb435"/><rect x="8" y="8" width="1" height="1" fill="#c49b22"/><rect x="8" y="9" width="1" height="1" fill="#d1a72b"/><rect x="8" y="10" width="1" height="1" fill="#deb435"/><rect x="8" y="11" width="1" height="1" fill="#c49b22"/><rect x="8" y="12" width="1" height="1" fill="#8a6b10"/><rect x="8" y="13" width="1" height="1" fill="#5d4a1c"/><rect x="9" y="0" width="1" height="1" fill="#5d4a1c"/><rect x="9" y="1" width="1" height="1" fill="#ffefbc"/><rect x="9" y="2" width="1" height="1" fill="#ffe9a0"/><rect x="9" y="3" width="1" height="1" fill="#f0c543"/><rect x="9" y="4" width="1" height="1" fill="#a78319"/><rect x="9" y="5" width="1" height="1" fill="#deb435"/><rect x="9" y="6" width="1" height="1" fill="#d1a72b"/><rect x="9" y="7" width="1" height="1" fill="#8a6b10"/><rect x="9" y="8" width="1" height="1" fill="#8a6b10"/><rect x="9" y="9" width="1" height="1" fill="#8a6b10"/><rect x="9" y="10" width="1" height="1" fill="#8a6b10"/><rect x="9" y="11" width="1" height="1" fill="#8a6b10"/><rect x="9" y="12" width="1" height="1" fill="#8a6b10"/><rect x="9" y="13" width="1" height="1" fill="#5e4d29"/><rect x="10" y="0" width="1" height="1" fill="#8a6b10"/><rect x="10" y="1" width="1" height="1" fill="#ffe9a0"/><rect x="10" y="2" width="1" height="1" fill="#fade84"/><rect x="10" y="3" width="1" height="1" fill="#fade84"/><rect x="10" y="4" width="1" height="1" fill="#d1a72b"/><rect x="10" y="5" width="1" height="1" fill="#8a6b10"/><rect x="10" y="6" width="1" height="1" fill="#8a6b10"/><rect x="10" y="7" width="1" height="1" fill="#5d4a1c"/><rect x="10" y="9" width="1" height="1" fill="#5e4d29"/><rect x="10" y="10" width="1" height="1" fill="#5d4a1c"/><rect x="10" y="11" width="1" height="1" fill="#5e4d29"/><rect x="10" y="12" width="1" height="1" fill="#5e4d29"/><rect x="11" y="0" width="1" height="1" fill="#5d4a1c"/><rect x="11" y="1" width="1" height="1" fill="#f0c543"/><rect x="11" y="2" width="1" height="1" fill="#deb435"/><rect x="11" y="3" width="1" height="1" fill="#8a6b10"/><rect x="11" y="4" width="1" height="1" fill="#8a6b10"/><rect x="12" y="0" width="1" height="1" fill="#5e4d29"/><rect x="12" y="1" width="1" height="1" fill="#8a6b10"/><rect x="12" y="2" width="1" height="1" fill="#8a6b10"/><rect x="12" y="14" width="1" height="1" fill="#f0c543"/><rect x="13" y="1" width="1" height="1" fill="#5e4d29"/><rect x="13" y="2" width="1" height="1" fill="#5d4a1c"/><rect x="13" y="10" width="1" height="1" fill="#fff4cf"/><rect x="14" y="5" width="1" height="1" fill="#8a6b10"/><rect x="14" y="9" width="1" height="1" fill="#c49b22"/><rect x="14" y="11" width="1" height="1" fill="#ffffff"/><rect x="15" y="12" width="1" height="1" fill="#ffe9a0"/></svg>