<svg xmlns="http://www.w3.org/2000/svg" viewBox="0 0 24 24" style="color: #f0e6d3;"><path d="m1105.2 621.6h-30v-103.2c0-70.801-57.602-129.6-129.6-129.6h-302.4v-106.8c44.398-16.801 75.602-60 75.602-110.4 0-66-52.801-118.8-118.8-118.8s-118.8 52.801-118.8 118.8c0 50.398 31.199 92.398 75.602 110.4v106.8h-303.6c-70.801 0-129.6 57.602-129.6 129.6v103.2h-28.797c-36 0-64.801 28.801-64.801 64.801v152.4c0 36 28.801 64.801 64.801 64.801h30v112.8c0 70.801 57.602 129.6 129.6 129.6h692.4c70.801 0 129.6-57.602 129.6-129.6v-112.8h30c36 0 64.801-28.801 64.801-64.801l-0.003906-152.4c-1.1992-34.797-30-64.797-66-64.797zm-783.6 49.199c0-54 43.199-97.199 97.199-97.199s97.199 43.199 97.199 97.199-43.199 97.199-97.199 97.199-97.199-43.199-97.199-97.199zm373.2 304.8h-189.6c-24 0-43.199-19.199-43.199-43.199s19.199-43.199 43.199-43.199h188.4c24 0 43.199 19.199 43.199 43.199 1.2031 23.996-19.195 43.199-41.996 43.199zm86.398-207.6c-54 0-97.199-43.199-97.199-97.199s43.199-97.199 97.199-97.199 97.199 43.199 97.199 97.199-43.199 97.199-97.199 97.199z" fill="currentColor" transform="scale(0.02)"/></svg>