<svg xmlns="http://www.w3.org/2000/svg" viewBox="0 0 24 24" style="color: #f0e6d3;"><path d="m891.89 463.03h22.922c10.922 0 19.781-8.8594 19.781-19.781v-125.95c25.781-1.0312 47.531-15.375 57.141-36.188h60.656c10.922 0 19.781-8.8594 19.781-19.781v-92.625c0-10.922-8.8594-19.781-19.781-19.781h-60.656c-9.9375-21.562-32.953-36.422-60-36.422h-663.47c-27.047 0-50.062 14.859-60 36.422h-60.656c-10.922 0-19.781 8.8594-19.781 19.781v92.625c0 10.922 8.8594 19.781 19.781 19.781h60.656c9.6094 20.812 31.359 35.156 57.141 36.188v354.74c0 10.922 8.8594 19.781 19.781 19.781h22.922c15.656 0 28.359 10.125 28.359 22.547 0 12.422-12.75 22.547-28.359 22.547h-22.922c-10.922 0-19.781 8.8594-19.781 19.781v125.95c-25.781 1.0312-47.531 15.375-57.141 36.188h-60.656c-10.922 0-19.781 8.8594-19.781 19.781v92.625c0 10.922 8.8594 19.781 19.781 19.781h60.656c9.9375 21.562 32.953 36.422 60 36.422h663.47c27.047 0 50.016-14.859 60-36.422h60.656c10.922 0 19.781-8.8594 19.781-19.781v-92.625c0-10.922-8.8594-19.781-19.781-19.781h-60.656c-9.6094-20.812-31.359-35.156-57.141-36.188v-354.74c0-10.922-8.8594-19.781-19.781-19.781h-22.922c-15.656 0-28.359-10.125-28.359-22.547s12.75-22.547 28.359-22.547zm140.72-221.48h-35.391v-53.016h35.391zm-865.22-53.016h35.391v53.016h-35.391zm75.141 70.828c-0.046875-0.5625-0.14062-1.1719-0.14062-1.7344v-85.125c0-0.5625 0.09375-1.1719 0.14062-1.7812 1.0312-10.406 12.328-18.609 25.734-18.609h663.47c13.359 0 24.656 8.1562 25.734 18.656 0.046875 0.5625 0.14062 1.125 0.14062 1.7344v85.125c0 0.5625-0.09375 1.1719-0.14062 1.7812-1.0312 10.453-12.328 18.609-25.734 18.609l-663.47-0.046875c-13.359 0-24.656-8.1562-25.734-18.656zm-75.141 699.14h35.391v53.016h-35.391zm865.22 53.016h-35.391v-53.016h35.391zm-75.141-70.828c0.046875 0.5625 0.14062 1.125 0.14062 1.7344v85.125c0 0.5625-0.09375 1.125-0.14062 1.7344-1.0312 10.406-12.328 18.609-25.734 18.609l-663.47 0.046875c-13.359 0-24.656-8.1562-25.734-18.656-0.046875-0.5625-0.14062-1.125-0.14062-1.6875v-85.172c0-0.5625 0.09375-1.125 0.14062-1.7344 1.0312-10.453 12.328-18.60925.734-18.609h663.47c13.359 0 24.656 8.1562 25.734 18.656zm-65.578-392.95h3.1406v334.69h-590.06v-105.89h3.1406c37.453 0 67.969-27.891 67.969-62.156 0-34.266-30.469-62.156-67.969-62.156h-3.1406v-334.69h590.06v105.89h-3.1406c-37.453 0-67.969 27.891-67.969 62.156s30.469 62.156 67.969 62.156zm-85.219-129.98c0 10.922-8.8594 19.781-19.781 19.781h-355.87c-10.922 0-19.781-8.8594-19.781-19.781s8.8594-19.781 19.781-19.781h355.87c10.922 0 19.781 8.8594 19.781 19.781zm-395.48 91.125c0-10.922 8.8594-19.781 19.781-19.781h257.06c10.922 0 19.781 8.8594 19.781 19.781s-8.8594 19.781-19.781 19.781h-257.06c-10.922 0-19.781-8.8594-19.781-19.781zm395.48 91.125c0 10.922-8.8594 19.781-19.781 19.781h-169.03c-10.922 0-19.781-8.8594-19.781-19.781s8.8594-19.781 19.781-19.781h169.03c10.922 0 19.781 8.8594 19.781 19.781zm-395.48 0c0-10.922 8.8594-19.781 19.781-19.781h107.72c10.922 0 19.781 8.8594 19.781 19.781s-8.8594 19.781-19.781 19.781h-107.72c-10.922 0-19.781-8.8594-19.781-19.781zm0 91.125c0-10.922 8.8594-19.781 19.781-19.781h208.69c10.922 0 19.781 8.8594 19.781 19.781s-8.8594 19.781-19.781 19.781h-208.69c-10.922 0-19.781-8.8594-19.781-19.781zm395.48 0c0 10.922-8.8594 19.781-19.781 19.781h-56.812c-10.922 0-19.781-8.8594-19.781-19.781s8.8594-19.781 19.781-19.781h56.812c10.922 0 19.781 8.8594 19.781 19.781zm0 91.125c0 10.922-8.8594 19.781-19.781 19.781h-355.87c-10.922 0-19.781-8.8594-19.781-19.781s8.8594-19.781 19.781-19.781h355.87c10.922 0 19.781 8.8594 19.781 19.781z" fill="currentColor" transform="scale(0.02)"/></svg>